<svg xmlns="http://www.w3.org/2000/svg" fill="none" viewBox="0 0 142 142">
  <title>OpenAPI.tools - from APIs You Won't Hate</title>
  <g stroke="none" stroke-width="1" fill="none" fill-rule="evenodd">
    <g transform="translate(3.000000, 3.000000)">
      <path class="wrench" d="M123.070302,0.423386798 L112.414467,11.2105443 C112.103427,11.5254455 112.023023,11.6717119 111.970125,11.8474541 C111.917227,12.0231964 111.917227,12.2027082 111.970125,12.3784504 C112.01641,12.5322249 112.083756,12.6634319 112.308242,12.9047901 L112.414467,13.0153603 L122.601041,23.3283934 C122.603931,23.3313193 122.606839,23.3342273 122.609765,23.3371173 C122.972466,23.6953707 123.539857,23.7196006 123.930259,23.4121616 L124.023952,23.3283934 L135.306978,11.9052158 C136.995459,17.5827468 135.598611,23.9822922 131.116039,28.4623496 C126.01345,33.5660992 118.430539,34.6563837 112.252006,31.7606727 L111.922378,31.6017324 L75.6026423,67.9212897 C78.6961747,74.1578107 77.6593646,81.9223819 72.465658,87.1160629 C65.9539111,93.6265708 55.3963115,93.6289847 48.8833576,87.1172699 C42.3728177,80.605555 42.3716107,70.0480073 48.8833576,63.5362925 C53.9871323,58.4337287 61.571229,57.343465 67.7486592,60.2391763 L68.0782252,60.3981166 L104.397961,24.0773523 C101.304429,17.8420384 102.342446,10.0774671 107.537359,4.88378614 C111.751097,0.669288339 117.660111,-0.817511442 123.070302,0.423386798 Z M62.8909843,64.2513024 L51.9538344,67.8049979 L49.5628499,79.0536953 L58.1090154,86.7486973 L69.0461653,83.1950018 L71.4371498,71.9463044 L62.8909843,64.2513024 Z" id="Combined-Shape"></path>
      <path class="ring" d="M60.5,16 C72.8961777,16 84.421594,19.7281725 94.0161606,26.124429 L67.9195945,52.2187097 C65.5768266,51.4852893 63.0845757,51.09 60.5,51.09 C46.8005768,51.09 35.695,62.1955768 35.695,75.895 C35.695,89.5944232 46.8005768,100.7 60.5,100.7 C74.1994232,100.7 85.305,89.5944232 85.305,75.895 C85.305,73.3104243 84.9097107,70.8181734 84.1762903,68.4754055 L110.387898,42.2635676 C117.081931,51.999194 121,63.79204 121,76.5 C121,109.913227 93.9132274,137 60.5,137 C27.0867726,137 0,109.913227 0,76.5 C0,43.0867726 27.0867726,16 60.5,16 Z" id="ring" fill="#4D5A31"></path>
    </g>
  </g>
  <style>
    .wrench { fill: #424143; }
    @media (prefers-color-scheme: dark) {
      .wrench { fill: #FFF; }
    }
  </style>
</svg>
